<svg width="176" height="176" viewBox="0 0 176 176" fill="none" xmlns="http://www.w3.org/2000/svg">
<path d="M176 88C176 136.6 136.6 176 88 176C39.4 176 0 136.6 0 88C0 39.4 39.4 0 88 0C136.6 0 176 39.4 176 88Z" fill="#781F19"/>
<path d="M155.9 88C155.9 125.5 125.5 155.9 88 155.9C50.5 155.9 20.1 125.5 20.1 88C20.1 50.5 50.5 20.1 88 20.1C125.5 20.1 155.9 50.5 155.9 88Z" fill="#D6A64F"/>
<path d="M155.9 88C155.9 125.5 125.5 155.9 88 155.9C50.5 155.9 20.1 125.5 20.1 88C20.1 50.5 50.5 20.1 88 20.1C125.5 20.1 155.9 50.5 155.9 88Z" stroke="white" stroke-width="0.75" stroke-miterlimit="10"/>
<path d="M29.2 146.5L36.5 139L38.2 140.6L30.9 148.1L29.2 146.5Z" fill="white"/>
<path d="M34.3 136.9L26.2 143.5L24.5 141.4L26.1 137.3C26.6 136.1 27.2 134.9 27.8 133.7C26.8 134.7 25.7 135.7 24.5 136.6L22.1 138.5L20.7 136.8L28.8 130.2L30.4 132.1L28.7 136.4C28.2 137.7 27.6 138.9 26.9 140.1C27.9 139.2 29.1 138.2 30.4 137.1L32.8 135.1L34.2 136.8" fill="white"/>
<path d="M24.5 126.6C24.4 126.3 24.3 126.1 24.1 125.9C23 124 21.3 123.4 19.2 124.6C17.7 125.3 17 127 17.7 128.6C17.8 128.8 17.9 129 18 129.2C18.2 129.5 18.4 129.8 18.6 130.1L24.5 126.6ZM18.3 132.8C17.6 132 17 131.1 16.5 130.2C15.6 129 15.2 127.5 15.3 125.9C15.5 124.4 16.5 123.1 17.9 122.4C19.2 121.5 20.9 121.3 22.4 121.8C24 122.5 25.2 123.8 26 125.3C26.5 126.1 26.9 126.9 27.2 127.7L18.3 132.8Z" fill="white"/>
<path d="M11.2 119.3L20.8 115.2L21.7 117.4L12.1 121.5L11.2 119.3Z" fill="white"/>
<path d="M13.9 108.8L12 110C11.4 110.3 10.8 110.7 10.2 111.1C10.8 111.1 11.6 111 12.3 111H14.6L13.9 108.8ZM16.4 110.8L19.2 110.7L19.9 113H8.9L8 110L17.1 103.9L17.8 106.3L15.5 107.9L16.4 110.8Z" fill="white"/>
<path d="M16.7 101.7L6.3 103.1L6 100.4L9.5 97.7C10.6 96.9 11.7 96.2 12.8 95.6C11.5 95.9 10.1 96.1 8.5 96.4L5.5 96.8L5.2 94.6L15.5 93.3L15.8 95.8L12.1 98.5C11 99.3 9.9 100.1 8.7 100.8V100.9C10.1 100.6 11.5 100.4 13.2 100.2L16.3 99.8L16.7 101.7Z" fill="white"/>
<path d="M5.2 83.3L15.6 83.7L15.5 86.1L5.10001 85.7L5.2 83.3Z" fill="white"/>
<path d="M15.8 80.8L5.5 79.2L5.9 76.5L10 75C11.2 74.5 12.5 74.2 13.8 73.9C12.3 73.8 10.9 73.6 9.5 73.4L6.5 72.9L6.8 70.8L17.1 72.5L16.7 74.9L12.4 76.4C11.1 76.9 9.8 77.3 8.5 77.6V77.7C9.9 77.9 11.3 78 13 78.3L16.1 78.8L15.8 80.8Z" fill="white"/>
<path d="M15.6 68.5C16.2 67.8 16.7 67.1 17 66.2C17.3 65.2 17.1 64.5 16.4 64.3C15.7 64.1 15.3 64.5 14.5 65.5C13.4 67 12.1 67.8 10.7 67.3C9 66.8 8.2 64.9 8.9 62.6C9.2 61.7 9.6 60.9 10.2 60.2L11.9 61.3C11.4 61.8 11 62.5 10.8 63.2C10.5 64.2 10.8 64.8 11.3 65C11.8 65.2 12.4 64.7 13.3 63.6C14.5 62 15.7 61.5 17.1 62C18.8 62.5 19.8 64.2 18.9 67C18.6 68 18.1 68.9 17.4 69.6L15.6 68.5Z" fill="white"/>
<path d="M14 55.1L12.8 57.7L11 56.9L14.4 49.6L16.2 50.4L15 53L22.7 56.6L21.7 58.7L14 55.1Z" fill="white"/>
<path d="M17.3 44.7L26.3 50L25.1 52L16.1 46.7L17.3 44.7Z" fill="white"/>
<path d="M22.2 40.8L20.5 43.1L18.9 41.9L23.7 35.4L25.3 36.6L23.6 38.9L30.4 43.9L28.9 45.8L22.2 40.8Z" fill="white"/>
<path d="M27.8 31L32 35.2C33.3 36.5 34.4 36.6 35.3 35.8C36.1 35 36 33.8 34.7 32.5L30.4 28.3L32.1 26.6L36.3 30.7C38.6 33 38.5 35.2 36.6 37.1C34.7 39 32.6 39 30.3 36.7L26.2 32.6L27.8 31Z" fill="white"/>
<path d="M38.4 24.1L36.1 25.8L34.9 24.2L41.3 19.4L42.5 21L40.2 22.7L45.3 29.5L43.4 30.9L38.4 24.1Z" fill="white"/>
<path d="M52.7 19.6L49.4 21.5L50.6 23.7L54.3 21.6L55.3 23.3L49.5 26.6L44.3 17.5L49.9 14.3L50.9 16L47.4 18L48.5 19.9L51.8 18.1L52.7 19.6Z" fill="white"/>
<path d="M65.1 17.4C66.6 16.9 67 15.2 66.4 13.2C65.8 11.4 64.5 10.2 62.9 10.7C61.3 11.2 61 12.9 61.6 14.9C62.1 16.8 63.6 17.9 65.1 17.4ZM65.5 19.3C62.6 20.3 60.1 18.6 59.2 15.8C58.2 12.8 59.4 10 62.3 9.00002C65.2 8.10002 67.8 9.80002 68.6 12.5C69.8 15.7 68.5 18.3 65.5 19.3Z" fill="white"/>
<path d="M71.1 6.80001L77.4 5.70001L77.7 7.60001L73.7 8.30001L74.1 10.7L77.8 10.1L78.1 12L74.4 12.6L75.1 16.7L72.8 17.1L71.1 6.80001Z" fill="white"/>
<path d="M88.1 7.10001H85.3V5.10001L93.3 5.20001V7.20001H90.5L90.4 15.7H88L88.1 7.20001" fill="white"/>
<path d="M102.1 12.3L98.3 11.8L97.9 14.3L102.1 14.9L101.8 16.8L95.2 15.9L96.7 5.60001L103.1 6.50001L102.8 8.40001L98.8 7.80001L98.5 10L102.3 10.5L102.1 12.3Z" fill="white"/>
<path d="M111.8 19.1C110.9 19.2 110 19.1 109.1 18.8C105.6 17.8 104.5 15.1 105.3 12.2C106.3 8.80001 109.3 7.60001 112.3 8.40001C113.2 8.60001 114 9.00001 114.7 9.60001L113.7 11.3C113.2 10.9 112.6 10.6 111.9 10.4C110.3 9.80001 108.5 10.7 107.9 12.3C107.8 12.5 107.8 12.6 107.8 12.8C107.2 14.4 108 16.2 109.6 16.8C109.8 16.9 109.9 16.9 110.1 16.9C110.7 17.1 111.4 17.2 112.1 17.1L111.8 19.1Z" fill="white"/>
<path d="M120.6 11.7L118.9 15.4L122.4 17L124.1 13.3L126.2 14.3L121.9 23.8L119.8 22.8L121.6 18.8L118.1 17.2L116.3 21.2L114.2 20.2L118.5 10.7L120.6 11.7Z" fill="white"/>
<path d="M124.6 25.3L130.4 16.6L132.7 18.1L132.4 22.5C132.3 23.8 132.1 25.1 131.8 26.4C132.5 25.1 133.2 23.9 134.1 22.7L135.8 20.2L137.6 21.4L131.8 30.1L129.7 28.7L130.1 24.1C130.2 22.7 130.4 21.4 130.6 20C129.9 21.2 129.1 22.4 128.2 23.9L126.5 26.5L124.6 25.3Z" fill="white"/>
<path d="M138.6 33.8C139.8 34.9 141.5 34.4 142.8 32.9C144.2 31.4 144.5 29.8 143.4 28.6C142.3 27.4 140.5 28 139.1 29.4C137.7 30.8 137.4 32.7 138.6 33.8ZM137.3 35.1C135 33 135.3 30 137.3 27.9C139.3 25.8 142.5 25.3 144.7 27.4C146.9 29.5 146.7 32.5 144.7 34.6C142.4 37.1 139.4 37.2 137.3 35.1Z" fill="white"/>
<path d="M150.9 33.8L152.4 35.6L145.8 40.9L148.4 44.1L146.8 45.3L142.7 40.2L150.9 33.8Z" fill="white"/>
<path d="M151.6 49.9C152.4 51.3 154.2 51.3 155.9 50.2C157.5 49.2 158.4 47.7 157.6 46.3C156.8 44.9 154.9 44.9 153.3 45.9C151.7 46.9 150.8 48.5 151.6 49.9ZM150 50.8C148.4 48.2 149.5 45.4 152 43.8C154.5 42.2 157.7 42.7 159.3 45.4C160.9 48 159.8 50.9 157.3 52.4C154.3 54.1 151.5 53.4 150 50.8Z" fill="white"/>
<path d="M157.5 65.2C156.7 64.3 156.1 63.3 155.7 62.2C155 60.8 154.9 59.2 155.4 57.7C156 56.4 157.1 55.4 158.4 54.9C161.6 53.6 164.4 55.2 165.7 58.4C166.1 59.3 166.3 60.3 166.3 61.3L164.4 61.5C164.4 60.7 164.3 59.8 163.9 59.1C163.4 57.4 161.7 56.4 160 56.9C159.8 56.9 159.7 57 159.5 57.1C157.8 57.6 156.9 59.3 157.3 61C157.3 61.2 157.4 61.3 157.5 61.5C157.6 61.9 157.8 62.2 158.1 62.5L160.1 61.7L159.5 60.2L161.2 59.5L162.6 63.1L157.5 65.2Z" fill="white"/>
<path d="M158.3 70.5L162.5 69.5L167.8 64.9L168.4 67.5L166.2 69.1C165.5 69.6 165 69.9 164.4 70.3C165.1 70.4 165.7 70.5 166.5 70.6L169.2 71.1L169.8 73.7L163.1 71.7L158.9 72.7L158.3 70.5Z" fill="white"/>
<path d="M164.5 91C165.8 90.9 167.3 90.9 168.8 90.8C167.5 90.5 166 90.1 164.7 89.7L160.6 88.5V86.7L164.6 85.5C165.8 85.1 167.3 84.8 168.7 84.5C167.3 84.5 165.7 84.5 164.4 84.4L160.4 84.3V82.1L170.8 82.6V85.7L167.3 86.8C166.1 87.2 164.8 87.5 163.6 87.8V87.9C164.8 88.2 166.2 88.5 167.4 88.8L170.9 89.8L171 92.9L160.6 93.6V91.3L164.5 91Z" fill="white"/>
<path d="M163.6 102L165.9 101.7L168 101.5C167.4 101.3 166.7 101 166.1 100.7L164 99.7L163.6 102ZM162.4 99.1L159.9 97.9L160.3 95.5L170.1 100.4L169.6 103.4L158.8 104.8L159.2 102.3L162 102L162.4 99.1Z" fill="white"/>
<path d="M159 110C158.9 110.2 158.8 110.5 158.7 110.8C158 112.8 158.7 114.6 161 115.3C162.5 116 164.3 115.4 165 113.9C165.1 113.7 165.2 113.5 165.2 113.3C165.3 113 165.4 112.6 165.5 112.3L159 110ZM167.8 110.5C167.6 111.6 167.4 112.6 167 113.6C166.6 115.1 165.8 116.4 164.6 117.3C163.3 118.1 161.7 118.3 160.3 117.7C158.8 117.3 157.5 116.2 156.8 114.7C156.3 113 156.4 111.3 157.1 109.7C157.4 108.8 157.7 108 158.1 107.2L167.8 110.5Z" fill="white"/>
<path d="M158.1 122.9L157.7 123.7C157.2 124.7 157.4 125.6 158.2 126.1C159 126.6 159.8 126.2 160.3 125.2C160.5 124.9 160.6 124.5 160.7 124.2L158.1 122.9ZM163.1 122.9C162.8 123.9 162.4 124.9 161.9 125.8C161.5 126.9 160.6 127.8 159.6 128.4C158.8 128.7 157.9 128.7 157.2 128.3C156.2 127.7 155.6 126.6 155.8 125.5C155.1 126 154.2 126.1 153.4 125.8C152.2 125.5 150.8 125.2 150.4 125.2L151.5 123.1C152.3 123.2 153.2 123.4 154 123.6C155.3 123.9 155.8 123.7 156.3 122.8L156.6 122.2L153 120.3L154.1 118.2L163.1 122.9Z" fill="white"/>
<path d="M149.8 133.9L152 134.7C152.6 134.9 153.4 135.2 153.9 135.5C153.5 135 152.9 134.4 152.5 133.9L151.1 132L149.8 133.9ZM149.9 130.7L148.1 128.5L149.5 126.5L156.1 135.2L154.3 137.7L144 134.2L145.5 132.1L148.1 133L149.9 130.7Z" fill="white"/>
<path d="M144.1 137.7C143.2 138 142.5 138.5 141.8 139.1C141 139.9 141 140.6 141.5 141.1C142 141.6 142.6 141.5 143.8 140.9C145.4 140.1 146.9 139.9 148 141C149.3 142.2 149.2 144.2 147.5 146C146.9 146.7 146.1 147.2 145.3 147.6L144.3 145.9C145 145.6 145.6 145.2 146.2 144.7C146.9 144 146.9 143.3 146.5 142.9C146.1 142.5 145.4 142.6 144.1 143.3C142.3 144.2 141 144.1 140 143.1C138.7 141.9 138.6 139.9 140.6 137.8C141.3 137 142.2 136.5 143.1 136.1L144.1 137.7Z" fill="white"/>
<path d="M137.2 150.2C137.2 151.1 136.5 151.8 135.6 151.8C134.7 151.8 134 151.1 134 150.2C134 149.3 134.7 148.6 135.6 148.6C136.5 148.6 137.2 149.3 137.2 150.2Z" fill="white"/>
<path d="M41.9 150.2C41.9 151.1 41.2 151.7 40.3 151.7C39.4 151.7 38.8 151 38.8 150.1C38.8 149.2 39.5 148.6 40.4 148.6C41.2 148.6 41.9 149.3 41.9 150.2Z" fill="white"/>
<path d="M51.1 129.6L75.8 134L73.2 137.1L97.4 139.2L95 141.2L118.9 142.3L87.3 145.4L91.3 141.9L66.2 139.3L70.4 136.2L51.1 129.6Z" fill="white"/>
<path d="M48.2 151L50.4 152.3C50.4 151.9 50.5 151.5 50.6 151.1C50.7 150.7 50.8 150.4 51 150C51.3 149.5 51.8 149.1 52.4 149C53 148.9 53.7 149 54.2 149.3C55 149.9 55.7 150.7 56 151.6C56.5 152.8 56.8 154.2 56.9 155.5L56.4 155.6C56.3 154.6 56.1 153.6 55.6 152.7C55.2 151.9 54.6 151.2 53.8 150.8C53.4 150.6 52.9 150.5 52.4 150.7C51.9 150.9 51.5 151.3 51.2 151.8C51 152.1 50.9 152.3 50.8 152.6L51.7 153.1L51.8 154.4L50.6 153.7L46.6 160.5L45.8 159L49.3 152.9L48.2 152.3V151Z" fill="white"/>
<path d="M53.9 156.7C53.8 157.2 53.6 157.6 53.4 158C53.5 158.3 53.7 158.6 53.9 158.8C54.1 159 54.3 159.2 54.5 159.3C54.7 159.4 55 159.5 55.3 159.5C55.6 159.5 55.9 159.4 56.1 159.3L57.2 157L54 155.4C54 155.9 54 156.3 53.9 156.7ZM54.2 163.4L55.4 160.8C55.3 160.8 55.1 160.8 55 160.8C54.8 160.7 54.6 160.7 54.4 160.6C54 160.4 53.7 160.1 53.5 159.8C53.2 159.4 53 159 52.9 158.5C52.6 158.8 52.3 159 51.9 159.2C51.6 159.3 51.2 159.4 50.9 159.4C51.2 160.7 51.7 162 52.4 163.2L51.5 163.6C50.2 159.9 49.8 157.7 50.1 156.9C50.2 156.7 50.3 156.6 50.5 156.5C50.7 156.4 50.8 156.4 51 156.5C51.2 156.6 51.3 156.7 51.4 156.9C51.5 157.1 51.5 157.4 51.5 157.6C51.8 157.6 52.1 157.5 52.3 157.4C52.6 157.2 52.8 157 52.9 156.7C53 156.5 53.1 156.2 53.1 156C53.1 155.8 53.1 155.6 53.1 155.3L50.7 154.1L50.4 152.8L59.2 157.1L59.5 158.4L58.3 157.8L54.8 164.9L54.2 163.4Z" fill="white"/>
<path d="M58.5 156.5L60.9 157.4C60.9 157 60.9 156.6 60.9 156.2C60.9 155.8 61 155.4 61.2 155.1C61.4 154.6 61.8 154.2 62.4 154C63 153.8 63.6 153.8 64.2 154C65.1 154.4 65.8 155.1 66.3 155.9C67 157 67.5 158.3 67.8 159.6L67.4 159.7C67.2 158.7 66.7 157.8 66.1 156.9C65.6 156.2 64.9 155.6 64.1 155.3C63.7 155.1 63.2 155.2 62.7 155.4C62.2 155.7 61.9 156.1 61.7 156.6C61.6 156.9 61.5 157.2 61.5 157.5L62.4 157.9L62.8 159.2L61.5 158.7L58.6 166.1L57.6 164.7L60.2 158.2L59 157.7L58.5 156.5Z" fill="white"/>
<path d="M63.2 167.1C63.3 167.3 63.4 167.4 63.6 167.4C64 167.5 64.4 167.5 64.8 167.3C65.3 167.1 65.7 166.9 66 166.5C65.4 166.4 64.9 166.1 64.4 165.7C64.1 165.7 63.8 165.8 63.5 165.9C63.3 166 63.1 166.2 63 166.5C63.1 166.8 63.1 167 63.2 167.1ZM70.7 160.6L71.2 161.9L69.6 161.4L68.9 163.8L65.5 162.8C65.2 162.7 65 162.8 64.7 162.9C64.5 163 64.3 163.3 64.2 163.5C64.1 163.8 64.2 164.2 64.4 164.4C64.6 164.7 64.9 164.9 65.3 165L66.3 165.2C66.3 165.1 66.3 165 66.3 165C66.3 164.9 66.3 164.9 66.3 164.8C66.4 164.6 66.6 164.4 66.8 164.3C67.1 164.2 67.4 164.2 67.6 164.3C67.9 164.4 68.2 164.6 68.3 164.9C68.4 165.2 68.5 165.5 68.4 165.8C68.3 166 68.2 166.2 68 166.3C67.8 166.4 67.5 166.5 67.2 166.5L68.6 169.2L67.8 169.5L67.1 167.5C66.7 167.8 66.2 168.1 65.7 168.2C65.2 168.3 64.7 168.3 64.3 168.2C63.7 168 63.2 167.7 62.8 167.2C62.3 166.7 62.2 166.2 62.3 165.9C62.3 165.8 62.4 165.7 62.4 165.6C62.5 165.5 62.5 165.4 62.6 165.3C62.1 165.1 61.6 164.8 61.3 164.3C61 163.9 60.9 163.4 61.1 162.9C61.2 162.7 61.3 162.5 61.5 162.4C61.7 162.2 62 162 62.2 161.8L63.1 163.2C62.9 163.3 62.7 163.4 62.6 163.5C62.5 163.6 62.4 163.7 62.4 163.8C62.4 164 62.4 164.2 62.5 164.3C62.6 164.5 62.8 164.6 63.1 164.7L63.9 164.4C63.7 164.1 63.6 163.8 63.5 163.4C63.4 163 63.5 162.7 63.6 162.3C63.7 161.9 64.1 161.6 64.5 161.4C65 161.2 65.5 161.2 66 161.4L68 162L68.4 160.7L61.9 158.7L61.4 157.4L70.7 160.6Z" fill="white"/>
<path d="M71.4 162.5C71.6 162.8 71.9 163 72.3 163.1L72.6 161.6C72.6 161.5 72.6 161.3 72.6 161.2C72.5 161.1 72.5 161 72.4 161C72.1 160.9 71.9 161 71.7 161.2C71.5 161.3 71.3 161.6 71.3 161.8C71.1 162 71.2 162.3 71.4 162.5ZM74.3 161.3L78.6 162.1L79.2 163.3L77.9 163.1L76.5 170.9L75.2 169.8L75.6 167.5L73 167L72.8 167.9C72.8 168.1 72.7 168.3 72.6 168.4C72.5 168.5 72.3 168.6 72.2 168.5C71.8 168.4 71.4 168.1 70.9 167.4C70.5 166.9 70.4 166.3 70.4 165.7C70.4 165.6 70.5 165.5 70.6 165.4C70.7 165.3 70.9 165.3 71.1 165.3L71.8 165.4L72.1 163.7C71.5 163.4 70.9 163 70.6 162.4C70.3 161.9 70.1 161.3 70.2 160.8C70.3 160.5 70.5 160.2 70.8 160C71.1 159.8 71.5 159.7 71.9 159.8C72.5 160 73 160.4 73.3 160.9C73.7 161.4 73.9 162.1 73.8 162.8L73.3 165.6L75.9 166.1L76.5 162.7L74.8 162.4L74.3 161.3Z" fill="white"/>
<path d="M76.4 157.7C76.8 157.4 77.2 157.3 77.7 157.4C78.2 157.5 78.6 157.6 79 158C79.4 158.3 79.6 158.7 79.8 159.2L79.5 159.4C79.4 159.2 79.2 159 79 158.9C78.8 158.8 78.6 158.7 78.4 158.7C78 158.6 77.6 158.8 77.3 159C77 159.2 76.8 159.6 76.7 160C76.7 160.3 76.7 160.5 76.8 160.8C76.9 161.1 77.1 161.4 77.3 161.7L76.9 161.9C76.5 161.5 76.2 161 76 160.5C75.8 160 75.8 159.5 75.8 159C75.9 158.3 76.1 157.9 76.4 157.7Z" fill="white"/>
<path d="M79.9 168C80.1 168.2 80.4 168.3 80.7 168.4C81.2 168.4 81.7 168.4 82.1 168.2C82.6 168 83.2 167.7 83.6 167.4C83.3 167 83 166.7 82.7 166.5C82.4 166.3 82.1 166.2 81.7 166.1C81.2 166 80.7 166.2 80.3 166.4C79.9 166.6 79.7 167 79.7 167.4C79.6 167.6 79.7 167.9 79.9 168ZM85.9 162.6L86.6 163.7L85.3 163.6L84.7 171.5L83.3 170.5L83.4 168.7C83.1 168.9 82.7 169.1 82.3 169.3C81.9 169.4 81.6 169.5 81.2 169.5C80.4 169.4 79.7 169 79.2 168.4C78.6 167.9 78.3 167.2 78.3 166.5C78.3 166 78.6 165.5 79.1 165.2C79.6 164.9 80.2 164.7 80.7 164.8C81.3 164.8 81.8 165 82.3 165.4C82.8 165.8 83.2 166.2 83.5 166.8L83.7 163.7L77.9 163.3L77.2 162.2L85.9 162.6Z" fill="white"/>
<path d="M85.1 162.5H87.6C87.4 162.1 87.3 161.8 87.2 161.4C87.1 161 87 160.6 87.1 160.3C87.1 159.7 87.4 159.2 87.8 158.8C88.3 158.4 88.9 158.2 89.5 158.2C90.5 158.3 91.4 158.7 92.2 159.3C93.2 160.1 94.1 161.1 94.9 162.2L94.5 162.5C93.9 161.6 93.2 160.9 92.3 160.4C91.6 159.9 90.7 159.6 89.8 159.6C89.3 159.6 88.9 159.8 88.6 160.2C88.3 160.6 88.1 161.2 88.1 161.7C88.1 162 88.1 162.3 88.2 162.6H89.2L90 163.7H88.6L88.5 171.6L87 170.7L87.1 163.7H85.8L85.1 162.5Z" fill="white"/>
<path d="M96.5 162.2L97.4 163.2L96.1 163.3L96.6 171.2L95.1 170.4L94.8 166.4L92 166.6C91.7 166.6 91.5 166.8 91.4 167C91.2 167.2 91.2 167.5 91.2 167.8C91.3 168.3 91.4 168.9 91.8 169.3C92.2 169.9 92.7 170.3 93.2 170.7L92.7 171.2C91.9 170.5 91.2 169.8 90.6 169C90.2 168.5 89.9 167.8 89.8 167.2C89.8 166.7 89.9 166.2 90.2 165.8C90.5 165.4 90.9 165.2 91.3 165.2L94.7 165L94.6 163.4L88.9 163.8L88 162.8L96.5 162.2Z" fill="white"/>
<path d="M102.1 166.8C102.3 166.9 102.5 167 102.8 166.9C103.2 166.8 103.5 166.6 103.8 166.4C104.1 166.1 104.4 165.7 104.7 165.3C104.5 165.1 104.3 164.9 104 164.8C103.8 164.7 103.5 164.7 103.2 164.7C102.8 164.8 102.4 165 102.1 165.3C101.8 165.5 101.7 165.9 101.8 166.2C101.7 166.4 101.9 166.6 102.1 166.8ZM108.6 159.9L109.6 160.8L105.4 161.7L105.9 164.1C106 163.9 106.2 163.7 106.4 163.5C106.6 163.3 106.8 163.2 107.1 163.2C107.8 163.2 108.4 163.4 108.8 164C109.4 164.5 109.8 165.2 110 166C110.1 166.4 110.1 166.7 110 167.1C109.9 167.5 109.8 167.9 109.6 168.3L108.2 167.5C108.5 167.1 108.7 166.7 108.8 166.3C108.9 166 108.9 165.6 108.9 165.3C108.9 165 108.7 164.8 108.5 164.6C108.3 164.4 108 164.4 107.7 164.4C107.4 164.5 107.1 164.6 106.9 164.8C106.6 165.1 106.4 165.4 106.2 165.8L107 169.6L105.4 169L105.1 166.9C104.9 167.1 104.7 167.3 104.5 167.5C104.3 167.7 104 167.8 103.7 167.8C103.1 167.9 102.4 167.7 101.9 167.2C101.3 166.8 100.9 166.2 100.7 165.6C100.6 165.2 100.7 164.8 101 164.4C101.3 164 101.7 163.8 102.2 163.7C102.6 163.6 103 163.7 103.4 163.8C103.8 164 104.2 164.2 104.6 164.6L104 162L99.6 162.9L98.6 162L108.6 159.9Z" fill="white"/>
<path d="M112.5 163.2L115.1 162.3L114 159.1L111.4 160L112.5 163.2ZM115.5 157.4L116.6 158.2L115.3 158.6L117.9 166.1L116.3 165.7L115.6 163.7L113 164.6L113.3 165.5C113.4 165.7 113.4 165.9 113.3 166C113.3 166.1 113.2 166.3 113 166.3C112.4 166.4 111.8 166.3 111.3 165.9C110.7 165.7 110.3 165.2 110 164.6C110 164.5 110 164.3 110.1 164.2C110.2 164.1 110.3 164 110.5 163.9L111.3 163.6L110.2 160.3L108.4 160.9L107.3 160.1L115.5 157.4Z" fill="white"/>
<path d="M111.5 154.6C111.7 154.2 112 153.9 112.4 153.7C113.3 153.3 114.3 153.5 115 154.2L114.9 154.6C114.7 154.5 114.5 154.4 114.2 154.4C114 154.4 113.8 154.4 113.6 154.5C113.2 154.6 112.9 155 112.8 155.3C112.6 155.7 112.6 156.1 112.8 156.5C112.9 156.7 113.1 156.9 113.3 157.1C113.6 157.3 113.8 157.5 114.2 157.6L114 158C113.5 157.8 113 157.5 112.5 157.2C112.1 156.9 111.8 156.4 111.6 156C111.3 155.5 111.3 155 111.5 154.6Z" fill="white"/>
<path d="M123.5 153.7L124.7 154.3L123.5 154.9L126.9 162.1L125.2 161.9L123.6 158.5L121.3 159.6C121.8 159.7 122.2 159.9 122.6 160.2C123 160.5 123.2 160.8 123.4 161.2C123.6 161.6 123.6 162.1 123.4 162.4C123.2 162.8 122.9 163.2 122.5 163.3C121.6 163.6 120.6 163.5 119.9 163C118.7 162.4 117.7 161.6 116.9 160.6L117.3 160.2C117.9 160.9 118.6 161.5 119.5 161.9C120.1 162.2 120.8 162.3 121.4 162.1C121.6 162 121.8 161.8 121.8 161.6C121.9 161.4 121.9 161.1 121.7 160.8C121.5 160.4 121.1 160 120.6 159.8C120 159.5 119.3 159.3 118.6 159.2L122.8 157.2L122 155.6L115.3 158.7L114.1 158.1L123.5 153.7Z" fill="white"/>
<path d="M126.1 152.1L127.3 152.6L126.1 153.3L130.1 160.2L128.4 160.1L124.9 154L123.8 154.6L122.6 154.1L126.1 152.1Z" fill="white"/>
<path d="M39.8 98.6C39.8 100.9 45.1 102 46.5 102.4C52.5 103.8 58.6 104.7 64.7 105.1C70.8 105.4 76.8 104.7 82.7 103.2C79.4 99.1 76.6 94.6 74.2 89.9C54 91.1 39.8 95.2 39.8 98.6ZM101.8 89.8C99.5 94.5 96.6 99 93.3 103.1C99.2 104.7 105.2 105.3 111.3 105.1C117.4 104.8 123.5 103.9 129.5 102.4C130.9 102 136.2 100.9 136.2 98.6C136.3 95.2 122 91.1 101.8 89.8Z" fill="white"/>
<path d="M39.8 98.6C39.8 100.9 45.1 102 46.5 102.4C52.5 103.8 58.6 104.7 64.7 105.1C70.8 105.4 76.8 104.7 82.7 103.2C79.4 99.1 76.6 94.6 74.2 89.9C54 91.1 39.8 95.2 39.8 98.6ZM101.8 89.8C99.5 94.5 96.6 99 93.3 103.1C99.2 104.7 105.2 105.3 111.3 105.1C117.4 104.8 123.5 103.9 129.5 102.4C130.9 102 136.2 100.9 136.2 98.6C136.2 95.1 122 91.1 101.8 89.8Z" stroke="#1F1917" stroke-width="0.75" stroke-miterlimit="10"/>
<path d="M82.7 103.1C79.4 99 76.6 94.5 74.3 89.8C74.1 89.4 74 89.1 73.8 88.7C72.7 86.2 71.9 83.5 71.3 80.8C69 69.1 72.7 57.2 79.2 47.5C83 41.8 87 36 88 29.1H88.2C89.2 36 93.3 41.8 97 47.5C103.5 57.2 107.2 69.1 104.9 80.8C104.3 83.5 103.5 86.2 102.4 88.7C102.2 89.1 102.1 89.4 101.9 89.8C99.6 94.5 96.7 99 93.4 103.1C91.6 102.6 89.9 102.1 88.1 101.4C86.4 102.1 84.6 102.7 82.8 103.1H82.7Z" fill="white"/>
<path d="M82.7 103.1C79.4 99 76.6 94.5 74.3 89.8C74.1 89.4 74 89.1 73.8 88.7C72.7 86.2 71.9 83.5 71.3 80.8C69 69.1 72.7 57.2 79.2 47.5C83 41.8 87 36 88 29.1H88.2C89.2 36 93.3 41.8 97 47.5C103.5 57.2 107.2 69.1 104.9 80.8C104.3 83.5 103.5 86.2 102.4 88.7C102.2 89.1 102.1 89.4 101.9 89.8C99.6 94.5 96.7 99 93.4 103.1C91.6 102.6 89.9 102.1 88.1 101.4C86.4 102.1 84.6 102.7 82.8 103.1H82.7Z" stroke="#1F1917" stroke-width="0.75" stroke-miterlimit="10"/>
<path d="M82.6 103.1C76.7 104.7 70.7 105.3 64.6 105C58.5 104.7 52.4 103.8 46.4 102.3C45.2 102 40.7 101 39.8 99.1C44.4 116 64.2 128.7 87.9 128.7C111.6 128.7 131.4 116 136 99.1C135.1 100.9 130.7 101.9 129.5 102.2C123.5 103.6 117.4 104.5 111.3 104.8C105.2 105 99.2 104.4 93.3 102.8C91.5 102.3 89.8 101.8 88 101.1C86.3 101.8 84.5 102.4 82.7 102.8C82.6 102.8 82.6 102.8 82.5 102.8L82.6 103.1Z" fill="#781F19"/>
<path d="M82.6 103.1C76.7 104.7 70.7 105.3 64.6 105C58.5 104.7 52.4 103.8 46.4 102.3C45.2 102 40.7 101 39.8 99.1C44.4 116 64.2 128.7 87.9 128.7C111.6 128.7 131.4 116 136 99.1C135.1 100.9 130.7 101.9 129.5 102.2C123.5 103.6 117.4 104.5 111.3 104.8C105.2 105 99.2 104.4 93.3 102.8C91.5 102.3 89.8 101.8 88 101.1C86.3 101.8 84.5 102.4 82.7 102.8C82.6 102.8 82.6 102.8 82.5 102.8" stroke="#1F1917" stroke-width="0.75" stroke-miterlimit="10"/>
<path d="M88.9 89C88.5 89.3 88.3 89.7 88.2 90.2H88.1C88 89.7 87.7 89.3 87.3 89V101.6H87.8L88.1 101.5L88.4 101.6H88.9V89Z" fill="#BDA345"/>
<path d="M88.9 89C88.5 89.3 88.3 89.7 88.2 90.2H88.1C88 89.7 87.7 89.3 87.3 89V101.6H87.8L88.1 101.5L88.4 101.6H88.9V89Z" stroke="#1F1917" stroke-width="0.75" stroke-miterlimit="10"/>
<path d="M88.3 79.9H88C86.2 79.9 84.8 81.2 84.4 82.9C83.9 85.2 84.9 86.6 86.5 88.1C86.9 88.5 88.1 89.4 88.1 90.1H88.2C88.2 89.4 89.4 88.5 89.8 88.1C91.3 86.6 92.4 85.2 91.9 82.9C91.6 81.2 90.1 80 88.3 79.9Z" fill="#D9261C"/>
<path d="M88 79.9C86.2 79.9 84.8 81.2 84.4 82.9C83.9 85.2 84.9 86.6 86.5 88.1C86.9 88.5 88.1 89.4 88.1 90.1H88.2C88.2 89.4 89.4 88.5 89.8 88.1C91.3 86.6 92.4 85.2 91.9 82.9C91.6 81.2 90.1 80 88.3 79.9" stroke="#1F1917" stroke-width="0.75" stroke-linejoin="round"/>
<path d="M84.4 82.9C84.6 81.8 85.4 80.8 86.4 80.3L86.5 80.1C86.5 80.1 82.2 76.6 76.8 80.8C77.1 80.7 79.2 82.5 79.4 82.7C80.7 83.7 82.5 84.1 84.1 83.8L84.2 83.6C84.3 83.4 84.3 83.1 84.4 82.9Z" fill="#D9261C"/>
<path d="M84.4 82.9C84.6 81.8 85.4 80.8 86.4 80.3L86.5 80.1C86.5 80.1 82.2 76.6 76.8 80.8C77.1 80.7 79.2 82.5 79.4 82.7C80.7 83.7 82.5 84.1 84.1 83.8L84.2 83.6C84.3 83.4 84.3 83.1 84.4 82.9Z" stroke="#1F1917" stroke-width="0.75" stroke-linejoin="round"/>
<path d="M89.5 80.1C90.8 80.7 91.6 81.7 91.9 83C92 83.3 92 83.6 92 83.9C93.6 84.2 95.2 83.7 96.5 82.8C96.8 82.6 98.9 80.8 99.1 80.9C93.8 76.6 89.5 80.1 89.5 80.1Z" fill="#D9261C"/>
<path d="M89.5 80.1C90.8 80.7 91.6 81.7 91.9 83C92 83.3 92 83.6 92 83.9C93.6 84.2 95.2 83.7 96.5 82.8C96.8 82.6 98.9 80.8 99.1 80.9C93.8 76.6 89.5 80.1 89.5 80.1Z" stroke="#1F1917" stroke-width="0.75" stroke-linejoin="round"/>
<path d="M87.9 55.3C87.9 55.3 76.8 72.2 86.6 79.7H89.3C99 72.3 87.9 55.3 87.9 55.3Z" fill="#D9261C"/>
<path d="M87.9 55.3C87.9 55.3 76.8 72.2 86.6 79.7H89.3C99 72.3 87.9 55.3 87.9 55.3Z" stroke="#1F1917" stroke-width="0.75" stroke-linecap="round" stroke-linejoin="round"/>
<path d="M85.5 59.8L80.8 55.7C81.2 56.1 81 58.5 81 59C81 60.3 80.9 61.6 80.8 62.9C80.6 64.6 80.3 66.3 80 68C79.5 70.7 80 73.4 81.4 75.8C82.6 77.6 84.4 79 86.4 79.8C80 74.6 82.9 65.3 85.5 59.8Z" fill="#D9261C"/>
<path d="M85.5 59.8L80.8 55.7C81.2 56.1 81 58.5 81 59C81 60.3 80.9 61.6 80.8 62.9C80.6 64.6 80.3 66.3 80 68C79.5 70.7 80 73.4 81.4 75.8C82.6 77.6 84.4 79 86.4 79.8C80 74.6 82.9 65.3 85.5 59.8Z" stroke="#1F1917" stroke-width="0.75" stroke-linejoin="round"/>
<path d="M95.8 67.9C95.5 66.2 95.2 64.5 95 62.8C94.9 61.5 94.8 60.2 94.8 58.9C94.8 58.4 94.6 56 95 55.6L90.3 59.7C92.9 65.2 95.8 74.5 89.3 79.6C91.3 78.8 93.1 77.4 94.4 75.6C95.8 73.4 96.3 70.6 95.8 67.9Z" fill="#D9261C"/>
<path d="M95.8 67.9C95.5 66.2 95.2 64.5 95 62.8C94.9 61.5 94.8 60.2 94.8 58.9C94.8 58.4 94.6 56 95 55.6L90.3 59.7C92.9 65.2 95.8 74.5 89.3 79.6C91.3 78.8 93.1 77.4 94.4 75.6C95.8 73.4 96.3 70.6 95.8 67.9Z" stroke="#1F1917" stroke-width="0.75" stroke-linejoin="round"/>
<path d="M90 79.4L90.2 79.6C92.1 78.6 94.3 78.4 96.3 79.2H96.5C96.5 79.2 97.5 76.6 99.1 76.6C97.5 75.9 95.7 75.7 94 76.2C93 77.6 91.6 78.7 90 79.4Z" fill="#D9261C"/>
<path d="M90 79.4L90.2 79.6C92.1 78.6 94.3 78.4 96.3 79.2H96.5C96.5 79.2 97.5 76.6 99.1 76.6C97.5 75.9 95.7 75.7 94 76.2C93 77.6 91.6 78.7 90 79.4Z" stroke="#1F1917" stroke-width="0.75" stroke-linejoin="round"/>
<path d="M85.6 79.6L85.8 79.5L85.7 79.3C84.2 78.5 82.8 77.5 81.8 76.1C80.1 75.6 78.3 75.8 76.7 76.5C78.3 76.5 79.3 79.1 79.3 79.1L79.5 79.2C81.5 78.5 83.8 78.6 85.6 79.6Z" fill="#D9261C"/>
<path d="M85.6 79.6L85.8 79.5L85.7 79.3C84.2 78.5 82.8 77.5 81.8 76.1C80.1 75.6 78.3 75.8 76.7 76.5C78.3 76.5 79.3 79.1 79.3 79.1L79.5 79.2C81.5 78.5 83.8 78.6 85.6 79.6Z" stroke="#1F1917" stroke-width="0.75" stroke-linejoin="round"/>
<path d="M85.5 59.8C86 58.8 86.5 57.9 86.9 57.1L85 54.4L83.5 57.7V57.8L85.5 59.8Z" fill="#D9261C"/>
<path d="M85.5 59.8C86 58.8 86.5 57.9 86.9 57.1L85 54.4L83.5 57.7V57.8L85.5 59.8Z" stroke="#1F1917" stroke-width="0.75" stroke-miterlimit="10"/>
<path d="M90.3 59.8L92.6 57.8L91.1 54.5L89.2 57.2V57.5C89.5 58.2 90 59 90.3 59.8C90.4 59.9 90.4 59.8 90.3 59.8Z" fill="#D9261C"/>
<path d="M90.3 59.8L92.6 57.8L91.1 54.5L89.2 57.2V57.5C89.5 58.2 90 59 90.3 59.8ZM90.3 59.8C90.4 59.8 90.4 59.9 90.3 59.8Z" stroke="#1F1917" stroke-width="0.75" stroke-miterlimit="10"/>
</svg>
